<svg version="1.1" xmlns="http://www.w3.org/2000/svg" xmlns:xlink="http://www.w3.org/1999/xlink" x="0" y="0" viewBox="0 0 1286.7 1189.2" enable-background="new 0 0 1286.7 1189.2" xml:space="preserve"><defs><path id="b" d="M1 1 2 1 1 2z"/></defs><linearGradient id="a" gradientUnits="userSpaceOnUse" x1="922.2" y1="442.9" x2="696.2" y2="883.6" gradientTransform="matrix(1 0 0 -1 0 1190)"><stop offset="0" stop-color="#319e00"/><stop offset="1" stop-color="#207203"/></linearGradient><path fill="url(#a)" d="M1240.6 457.6C789.5 729.3 468.3-38.1 180.1 216.5a661.2 661.2 0 0 1 1060.5 241.1z"/><defs><use xlink:href="#b"/></defs><defs/><clipPath id="c"><use xlink:href="#b" overflow="visible"/></clipPath><clipPath id="f" clip-path="url(#c)"><use xlink:href="#d" overflow="visible"/></clipPath><defs><filter id="e" filterUnits="userSpaceOnUse" x="447.6" y="42.7" width="793" height="415.8"><feColorMatrix values="1 0 0 0 0 0 1 0 0 0 0 0 1 0 0 0 0 0 1 0"/></filter></defs><mask maskUnits="userSpaceOnUse" x="447.6" y="42.7" width="793" height="415.8" id="l"><g filter="url(#e)"><defs><use id="g" xlink:href="#b"/></defs><defs/><clipPath id="h" clip-path="url(#f)"><use xlink:href="#g" overflow="visible"/></clipPath><clipPath id="j" clip-path="url(#h)"><use xlink:href="#i" overflow="visible"/></clipPath><linearGradient id="k" gradientUnits="userSpaceOnUse" x1="938.1" y1="953.1" x2="1884.4" y2="516.9" gradientTransform="matrix(1 0 0 -1 0 1190)"><stop offset="0" stop-color="#fff"/><stop offset="1"/></linearGradient><path clip-path="url(#j)" fill="url(#k)" d="M447.6 67.3a661.2 661.2 0 0 1 793 390.2c-258 23.1-530.2-430.5-793-390.2z"/></g></mask><linearGradient id="m" gradientUnits="userSpaceOnUse" x1="938.1" y1="953.1" x2="1884.4" y2="516.9" gradientTransform="matrix(1 0 0 -1 0 1190)"><stop offset="0" stop-color="#fff"/><stop offset="1"/></linearGradient><path clip-path="url(#f)" mask="url(#l)" fill="url(#m)" d="M447.6 67.3a661.2 661.2 0 0 1 793 390.2c-258 23.1-530.2-430.5-793-390.2z"/><linearGradient id="n" gradientUnits="userSpaceOnUse" x1="938.1" y1="953.1" x2="1884.4" y2="516.9" gradientTransform="matrix(1 0 0 -1 0 1190)"><stop offset="0" stop-color="#5fa400"/><stop offset="1" stop-color="#e7ff00"/></linearGradient><path fill="url(#n)" d="M447.6 67.3a661.2 661.2 0 0 1 793 390.2c-258 23.1-530.2-430.5-793-390.2z"/><defs><use id="o" xlink:href="#b"/></defs><defs/><clipPath id="p"><use xlink:href="#o" overflow="visible"/></clipPath><clipPath id="s" clip-path="url(#p)"><use xlink:href="#q" overflow="visible"/></clipPath><defs><filter id="r" filterUnits="userSpaceOnUse" x="447.6" y="62" width="772.1" height="396.4"><feColorMatrix values="1 0 0 0 0 0 1 0 0 0 0 0 1 0 0 0 0 0 1 0"/></filter></defs><mask maskUnits="userSpaceOnUse" x="447.6" y="62" width="772.1" height="396.4" id="y"><g filter="url(#r)"><defs><use id="t" xlink:href="#b"/></defs><defs/><clipPath id="u" clip-path="url(#s)"><use xlink:href="#t" overflow="visible"/></clipPath><clipPath id="w" clip-path="url(#u)"><use xlink:href="#v" overflow="visible"/></clipPath><linearGradient id="x" gradientUnits="userSpaceOnUse" x1="838.9" y1="934.8" x2="1216.4" y2="701.6" gradientTransform="matrix(1 0 0 -1 0 1190)"><stop offset="0" stop-color="#fff"/><stop offset="1"/></linearGradient><path clip-path="url(#w)" fill="url(#x)" d="M447.6 67.3c255.6-39.2 520.3 389.1 772.1 391-247.5-3.1-436.6-449.8-772.1-391z"/></g></mask><linearGradient id="z" gradientUnits="userSpaceOnUse" x1="838.9" y1="934.8" x2="1216.4" y2="701.6" gradientTransform="matrix(1 0 0 -1 0 1190)"><stop offset="0" stop-color="#fff"/><stop offset="1"/></linearGradient><path clip-path="url(#s)" mask="url(#y)" fill="url(#z)" d="M447.6 67.3c255.6-39.2 520.3 389.1 772.1 391-247.5-3.1-436.6-449.8-772.1-391z"/><linearGradient id="A" gradientUnits="userSpaceOnUse" x1="838.9" y1="934.8" x2="1216.4" y2="701.6" gradientTransform="matrix(1 0 0 -1 0 1190)"><stop offset="0" stop-color="#5fa400"/><stop offset="1" stop-color="#e7ff00"/></linearGradient><path fill="url(#A)" d="M447.6 67.3c255.6-39.2 520.3 389.1 772.1 391-247.5-3.1-436.6-449.8-772.1-391z"/><defs><use id="B" xlink:href="#b"/></defs><defs/><clipPath id="C"><use xlink:href="#B" overflow="visible"/></clipPath><clipPath id="F" clip-path="url(#C)"><use xlink:href="#D" overflow="visible"/></clipPath><defs><filter id="E" filterUnits="userSpaceOnUse" x="524" y="131.2" width="571.9" height="269"><feColorMatrix values="1 0 0 0 0 0 1 0 0 0 0 0 1 0 0 0 0 0 1 0"/></filter></defs><mask maskUnits="userSpaceOnUse" x="524" y="131.2" width="571.9" height="269" id="L"><g filter="url(#E)"><defs><use id="G" xlink:href="#b"/></defs><defs/><clipPath id="H" clip-path="url(#F)"><use xlink:href="#G" overflow="visible"/></clipPath><clipPath id="J" clip-path="url(#H)"><use xlink:href="#I" overflow="visible"/></clipPath><linearGradient id="K" gradientUnits="userSpaceOnUse" x1="887.1" y1="1036" x2="603.6" y2="700.4" gradientTransform="matrix(1 0 0 -1 0 1190)"><stop offset="0" stop-color="#fff"/><stop offset="1"/></linearGradient><path clip-path="url(#J)" fill="url(#K)" d="M524 253c65.6 44.6 134 99.2 205.9 147.2 89.5-124.6 243-288.2 366-162.3a670.7 670.7 0 0 0-101.6-83.8C743.2 67.8 524 253 524 253z"/></g></mask><linearGradient id="M" gradientUnits="userSpaceOnUse" x1="887.1" y1="1036" x2="603.6" y2="700.4" gradientTransform="matrix(1 0 0 -1 0 1190)"><stop offset="0" stop-color="#fff"/><stop offset="1"/></linearGradient><path clip-path="url(#F)" mask="url(#L)" fill="url(#M)" d="M524 253c65.6 44.6 134 99.2 205.9 147.2 89.5-124.6 243-288.2 366-162.3a670.7 670.7 0 0 0-101.6-83.8C743.2 67.8 524 253 524 253z"/><linearGradient id="N" gradientUnits="userSpaceOnUse" x1="887.1" y1="1036" x2="603.6" y2="700.4" gradientTransform="matrix(1 0 0 -1 0 1190)"><stop offset="0" stop-color="#5fa400"/><stop offset="1" stop-color="#e7ff00"/></linearGradient><path fill="url(#N)" d="M524 253c65.6 44.6 134 99.2 205.9 147.2 89.5-124.6 243-288.2 366-162.3a670.7 670.7 0 0 0-101.6-83.8C743.2 67.8 524 253 524 253z"/><linearGradient id="O" gradientUnits="userSpaceOnUse" x1="13.2" y1="910.3" x2="1073.7" y2="910.3" gradientTransform="matrix(1 0 0 -1 0 1190)"><stop offset="0" stop-color="#e7ff00"/><stop offset="1" stop-color="#319e00"/></linearGradient><path fill="url(#O)" d="M13.2 457.6C464.3 729.3 785.5-38.1 1073.7 216.5A661.2 661.2 0 0 0 13.2 457.6z"/><defs><use id="P" xlink:href="#b"/></defs><defs/><clipPath id="Q"><use xlink:href="#P" overflow="visible"/></clipPath><clipPath id="T" clip-path="url(#Q)"><use xlink:href="#R" overflow="visible"/></clipPath><defs><filter id="S" filterUnits="userSpaceOnUse" x="180.6" y="42.7" width="893.1" height="284.4"><feColorMatrix values="1 0 0 0 0 0 1 0 0 0 0 0 1 0 0 0 0 0 1 0"/></filter></defs><mask maskUnits="userSpaceOnUse" x="180.6" y="42.7" width="893.1" height="284.4" id="Z"><g filter="url(#S)"><defs><use id="U" xlink:href="#b"/></defs><defs/><clipPath id="V" clip-path="url(#T)"><use xlink:href="#U" overflow="visible"/></clipPath><clipPath id="X" clip-path="url(#V)"><use xlink:href="#W" overflow="visible"/></clipPath><linearGradient id="Y" gradientUnits="userSpaceOnUse" x1="603" y1="686.5" x2="638.8" y2="1111.6" gradientTransform="matrix(1 0 0 -1 0 1190)"><stop offset="0" stop-color="#fff"/><stop offset="1"/></linearGradient><path clip-path="url(#X)" fill="url(#Y)" d="M626.9 42.7c-172 0-328.7 65.8-446.3 173.5 137.7-121.1 283-9.2 446.3 111 163.5-120.3 308.9-232.3 446.8-110.6A658.5 658.5 0 0 0 626.9 42.7z"/></g></mask><linearGradient id="aa" gradientUnits="userSpaceOnUse" x1="603" y1="686.5" x2="638.8" y2="1111.6" gradientTransform="matrix(1 0 0 -1 0 1190)"><stop offset="0" stop-color="#fff"/><stop offset="1"/></linearGradient><path clip-path="url(#T)" mask="url(#Z)" fill="url(#aa)" d="M626.9 42.7c-172 0-328.7 65.8-446.3 173.5 137.7-121.1 283-9.2 446.3 111 163.5-120.3 308.9-232.3 446.8-110.6A658.5 658.5 0 0 0 626.9 42.7z"/><linearGradient id="ab" gradientUnits="userSpaceOnUse" x1="603" y1="686.5" x2="638.8" y2="1111.6" gradientTransform="matrix(1 0 0 -1 0 1190)"><stop offset="0" stop-color="#5fa400"/><stop offset="1" stop-color="#e7ff00"/></linearGradient><path fill="url(#ab)" d="M626.9 42.7c-172 0-328.7 65.8-446.3 173.5 137.7-121.1 283-9.2 446.3 111 163.5-120.3 308.9-232.3 446.8-110.6A658.5 658.5 0 0 0 626.9 42.7z"/><defs><use id="ac" xlink:href="#b"/></defs><defs/><clipPath id="ad"><use xlink:href="#ac" overflow="visible"/></clipPath><clipPath id="ag" clip-path="url(#ad)"><use xlink:href="#ae" overflow="visible"/></clipPath><defs><filter id="af" filterUnits="userSpaceOnUse" x="13.2" y="42.7" width="793" height="415.7"><feColorMatrix values="1 0 0 0 0 0 1 0 0 0 0 0 1 0 0 0 0 0 1 0"/></filter></defs><mask maskUnits="userSpaceOnUse" x="13.2" y="42.7" width="793" height="415.7" id="am"><g filter="url(#af)"><defs><use id="ah" xlink:href="#b"/></defs><defs/><clipPath id="ai" clip-path="url(#ag)"><use xlink:href="#ah" overflow="visible"/></clipPath><clipPath id="ak" clip-path="url(#ai)"><use xlink:href="#aj" overflow="visible"/></clipPath><linearGradient id="al" gradientUnits="userSpaceOnUse" x1="364" y1="535.7" x2="446.2" y2="1240.4" gradientTransform="matrix(1 0 0 -1 0 1190)"><stop offset="0" stop-color="#fff"/><stop offset="1"/></linearGradient><path clip-path="url(#ak)" fill="url(#al)" d="M806.2 67.3a661.2 661.2 0 0 0-793 390.2c258 23.1 481-461.1 793-390.2z"/></g></mask><linearGradient id="an" gradientUnits="userSpaceOnUse" x1="364" y1="535.7" x2="446.2" y2="1240.4" gradientTransform="matrix(1 0 0 -1 0 1190)"><stop offset="0" stop-color="#fff"/><stop offset="1"/></linearGradient><path clip-path="url(#ag)" mask="url(#am)" fill="url(#an)" d="M806.2 67.3a661.2 661.2 0 0 0-793 390.2c258 23.1 481-461.1 793-390.2z"/><linearGradient id="ao" gradientUnits="userSpaceOnUse" x1="364" y1="535.7" x2="446.2" y2="1240.4" gradientTransform="matrix(1 0 0 -1 0 1190)"><stop offset="0" stop-color="#e7ff00"/><stop offset="1" stop-color="#ff0"/></linearGradient><path fill="url(#ao)" d="M806.2 67.3a661.2 661.2 0 0 0-793 390.2c258 23.1 481-461.1 793-390.2z"/><defs><use id="ap" xlink:href="#b"/></defs><defs/><clipPath id="aq"><use xlink:href="#ap" overflow="visible"/></clipPath><clipPath id="at" clip-path="url(#aq)"><use xlink:href="#ar" overflow="visible"/></clipPath><defs><filter id="as" filterUnits="userSpaceOnUse" x="30.3" y="55.5" width="775.9" height="402.9"><feColorMatrix values="1 0 0 0 0 0 1 0 0 0 0 0 1 0 0 0 0 0 1 0"/></filter></defs><mask maskUnits="userSpaceOnUse" x="30.3" y="55.5" width="775.9" height="402.9" id="az"><g filter="url(#as)"><defs><use id="au" xlink:href="#b"/></defs><defs/><clipPath id="av" clip-path="url(#at)"><use xlink:href="#au" overflow="visible"/></clipPath><clipPath id="ax" clip-path="url(#av)"><use xlink:href="#aw" overflow="visible"/></clipPath><linearGradient id="ay" gradientUnits="userSpaceOnUse" x1="462.1" y1="729.9" x2="351.4" y2="1227.7" gradientTransform="matrix(1 0 0 -1 0 1190)"><stop offset="0" stop-color="#fff"/><stop offset="1"/></linearGradient><path clip-path="url(#ax)" fill="url(#ay)" d="M30.3 458.4C281.1 459.4 501.2-2 806.2 67.3l-1.1-.3a315.8 315.8 0 0 0-244.2 31.8C367 212.3 198.2 457.9 30.3 458.4z"/></g></mask><linearGradient id="aA" gradientUnits="userSpaceOnUse" x1="462.1" y1="729.9" x2="351.4" y2="1227.7" gradientTransform="matrix(1 0 0 -1 0 1190)"><stop offset="0" stop-color="#fff"/><stop offset="1"/></linearGradient><path clip-path="url(#at)" mask="url(#az)" fill="url(#aA)" d="M30.3 458.4C281.1 459.4 501.2-2 806.2 67.3l-1.1-.3a315.8 315.8 0 0 0-244.2 31.8C367 212.3 198.2 457.9 30.3 458.4z"/><linearGradient id="aB" gradientUnits="userSpaceOnUse" x1="462.1" y1="729.9" x2="351.4" y2="1227.7" gradientTransform="matrix(1 0 0 -1 0 1190)"><stop offset="0" stop-color="#e7ff00"/><stop offset="1" stop-color="#ff0"/></linearGradient><path fill="url(#aB)" d="M30.3 458.4C281.1 459.4 501.2-2 806.2 67.3l-1.1-.3a315.8 315.8 0 0 0-244.2 31.8C367 212.3 198.2 457.9 30.3 458.4z"/><linearGradient id="aC" gradientUnits="userSpaceOnUse" x1="402.7" y1="686.5" x2="176.7" y2="1127.2" gradientTransform="matrix(-1 0 0 1 780.5 -243.3)"><stop offset="0" stop-color="#319e00"/><stop offset="1" stop-color="#207203"/></linearGradient><path fill="url(#aC)" d="M59.3 732.7C510.4 461 831.6 1228.4 1119.8 973.8A661.4 661.4 0 0 1 59.3 732.7z"/><defs><use id="aD" xlink:href="#b"/></defs><defs/><clipPath id="aE"><use xlink:href="#aD" overflow="visible"/></clipPath><clipPath id="aH" clip-path="url(#aE)"><use xlink:href="#aF" overflow="visible"/></clipPath><defs><filter id="aG" filterUnits="userSpaceOnUse" x="59.3" y="731.9" width="793" height="415.8"><feColorMatrix values="1 0 0 0 0 0 1 0 0 0 0 0 1 0 0 0 0 0 1 0"/></filter></defs><mask maskUnits="userSpaceOnUse" x="59.3" y="731.9" width="793" height="415.8" id="aN"><g filter="url(#aG)"><defs><use id="aI" xlink:href="#b"/></defs><defs/><clipPath id="aJ" clip-path="url(#aH)"><use xlink:href="#aI" overflow="visible"/></clipPath><clipPath id="aL" clip-path="url(#aJ)"><use xlink:href="#aK" overflow="visible"/></clipPath><linearGradient id="aM" gradientUnits="userSpaceOnUse" x1="418.6" y1="1196.7" x2="1364.9" y2="760.5" gradientTransform="matrix(-1 0 0 1 780.5 -243.3)"><stop offset="0" stop-color="#fff"/><stop offset="1"/></linearGradient><path clip-path="url(#aL)" fill="url(#aM)" d="M852.3 1123a661.2 661.2 0 0 1-793-390.2c258-23.1 530.3 430.5 793 390.2z"/></g></mask><linearGradient id="aO" gradientUnits="userSpaceOnUse" x1="418.6" y1="1196.7" x2="1364.9" y2="760.5" gradientTransform="matrix(-1 0 0 1 780.5 -243.3)"><stop offset="0" stop-color="#fff"/><stop offset="1"/></linearGradient><path clip-path="url(#aH)" mask="url(#aN)" fill="url(#aO)" d="M852.3 1123a661.2 661.2 0 0 1-793-390.2c258-23.1 530.3 430.5 793 390.2z"/><linearGradient id="aP" gradientUnits="userSpaceOnUse" x1="418.6" y1="1196.7" x2="1364.9" y2="760.5" gradientTransform="matrix(-1 0 0 1 780.5 -243.3)"><stop offset="0" stop-color="#5fa400"/><stop offset="1" stop-color="#e7ff00"/></linearGradient><path fill="url(#aP)" d="M852.3 1123a661.2 661.2 0 0 1-793-390.2c258-23.1 530.3 430.5 793 390.2z"/><defs><use id="aQ" xlink:href="#b"/></defs><defs/><clipPath id="aR"><use xlink:href="#aQ" overflow="visible"/></clipPath><clipPath id="aU" clip-path="url(#aR)"><use xlink:href="#aS" overflow="visible"/></clipPath><defs><filter id="aT" filterUnits="userSpaceOnUse" x="80.2" y="732" width="772.1" height="396.4"><feColorMatrix values="1 0 0 0 0 0 1 0 0 0 0 0 1 0 0 0 0 0 1 0"/></filter></defs><mask maskUnits="userSpaceOnUse" x="80.2" y="732" width="772.1" height="396.4" id="ba"><g filter="url(#aT)"><defs><use id="aV" xlink:href="#b"/></defs><defs/><clipPath id="aW" clip-path="url(#aU)"><use xlink:href="#aV" overflow="visible"/></clipPath><clipPath id="aY" clip-path="url(#aW)"><use xlink:href="#aX" overflow="visible"/></clipPath><linearGradient id="aZ" gradientUnits="userSpaceOnUse" x1="319.4" y1="1178.4" x2="696.9" y2="945.2" gradientTransform="matrix(-1 0 0 1 780.5 -243.3)"><stop offset="0" stop-color="#fff"/><stop offset="1"/></linearGradient><path clip-path="url(#aY)" fill="url(#aZ)" d="M852.3 1123C596.6 1162.2 332 733.9 80.2 732c247.6 3.1 436.6 449.8 772.1 391z"/></g></mask><linearGradient id="bb" gradientUnits="userSpaceOnUse" x1="319.4" y1="1178.4" x2="696.9" y2="945.2" gradientTransform="matrix(-1 0 0 1 780.5 -243.3)"><stop offset="0" stop-color="#fff"/><stop offset="1"/></linearGradient><path clip-path="url(#aU)" mask="url(#ba)" fill="url(#bb)" d="M852.3 1123C596.6 1162.2 332 733.9 80.2 732c247.6 3.1 436.6 449.8 772.1 391z"/><linearGradient id="bc" gradientUnits="userSpaceOnUse" x1="319.4" y1="1178.4" x2="696.9" y2="945.2" gradientTransform="matrix(-1 0 0 1 780.5 -243.3)"><stop offset="0" stop-color="#5fa400"/><stop offset="1" stop-color="#e7ff00"/></linearGradient><path fill="url(#bc)" d="M852.3 1123C596.6 1162.2 332 733.9 80.2 732c247.6 3.1 436.6 449.8 772.1 391z"/><defs><use id="bd" xlink:href="#b"/></defs><defs/><clipPath id="be"><use xlink:href="#bd" overflow="visible"/></clipPath><clipPath id="bh" clip-path="url(#be)"><use xlink:href="#bf" overflow="visible"/></clipPath><defs><filter id="bg" filterUnits="userSpaceOnUse" x="204.1" y="790.1" width="571.9" height="269"><feColorMatrix values="1 0 0 0 0 0 1 0 0 0 0 0 1 0 0 0 0 0 1 0"/></filter></defs><mask maskUnits="userSpaceOnUse" x="204.1" y="790.1" width="571.9" height="269" id="bn"><g filter="url(#bg)"><defs><use id="bi" xlink:href="#b"/></defs><defs/><clipPath id="bj" clip-path="url(#bh)"><use xlink:href="#bi" overflow="visible"/></clipPath><clipPath id="bl" clip-path="url(#bj)"><use xlink:href="#bk" overflow="visible"/></clipPath><linearGradient id="bm" gradientUnits="userSpaceOnUse" x1="367.7" y1="1279.6" x2="84.1" y2="944" gradientTransform="matrix(-1 0 0 1 780.5 -243.3)"><stop offset="0" stop-color="#fff"/><stop offset="1"/></linearGradient><path clip-path="url(#bl)" fill="url(#bm)" d="M776 937.3c-65.6-44.6-134-99.2-205.9-147.2-89.5 124.6-243 288.2-366 162.3 30.9 31.2 65 59.2 101.6 83.7 251 86.4 470.3-98.8 470.3-98.8z"/></g></mask><linearGradient id="bo" gradientUnits="userSpaceOnUse" x1="367.7" y1="1279.6" x2="84.1" y2="944" gradientTransform="matrix(-1 0 0 1 780.5 -243.3)"><stop offset="0" stop-color="#fff"/><stop offset="1"/></linearGradient><path clip-path="url(#bh)" mask="url(#bn)" fill="url(#bo)" d="M776 937.3c-65.6-44.6-134-99.2-205.9-147.2-89.5 124.6-243 288.2-366 162.3 30.9 31.2 65 59.2 101.6 83.7 251 86.4 470.3-98.8 470.3-98.8z"/><linearGradient id="bp" gradientUnits="userSpaceOnUse" x1="367.7" y1="1279.6" x2="84.1" y2="944" gradientTransform="matrix(-1 0 0 1 780.5 -243.3)"><stop offset="0" stop-color="#5fa400"/><stop offset="1" stop-color="#e7ff00"/></linearGradient><path fill="url(#bp)" d="M776 937.3c-65.6-44.6-134-99.2-205.9-147.2-89.5 124.6-243 288.2-366 162.3 30.9 31.2 65 59.2 101.6 83.7 251 86.4 470.3-98.8 470.3-98.8z"/><linearGradient id="bq" gradientUnits="userSpaceOnUse" x1="-506.3" y1="1153.9" x2="554.2" y2="1153.9" gradientTransform="matrix(-1 0 0 1 780.5 -243.3)"><stop offset="0" stop-color="#e7ff00"/><stop offset="1" stop-color="#319e00"/></linearGradient><path fill="url(#bq)" d="M1286.7 732.7C835.7 461 514.4 1228.4 226.2 973.8a661.3 661.3 0 0 0 1060.5-241.1z"/><defs><use id="br" xlink:href="#b"/></defs><defs/><clipPath id="bs"><use xlink:href="#br" overflow="visible"/></clipPath><clipPath id="bv" clip-path="url(#bs)"><use xlink:href="#bt" overflow="visible"/></clipPath><defs><filter id="bu" filterUnits="userSpaceOnUse" x="226.3" y="863.2" width="893.1" height="284.4"><feColorMatrix values="1 0 0 0 0 0 1 0 0 0 0 0 1 0 0 0 0 0 1 0"/></filter></defs><mask maskUnits="userSpaceOnUse" x="226.3" y="863.2" width="893.1" height="284.4" id="bB"><g filter="url(#bu)"><defs><use id="bw" xlink:href="#b"/></defs><defs/><clipPath id="bx" clip-path="url(#bv)"><use xlink:href="#bw" overflow="visible"/></clipPath><clipPath id="bz" clip-path="url(#bx)"><use xlink:href="#by" overflow="visible"/></clipPath><linearGradient id="bA" gradientUnits="userSpaceOnUse" x1="83.5" y1="930.1" x2="119.3" y2="1355.2" gradientTransform="matrix(-1 0 0 1 780.5 -243.3)"><stop offset="0" stop-color="#fff"/><stop offset="1"/></linearGradient><path clip-path="url(#bz)" fill="url(#bA)" d="M673 1147.7c172 0 328.7-65.8 446.3-173.5-137.7 121.1-283 9.2-446.3-111-163.5 120.3-308.9 232.3-446.8 110.6A658.7 658.7 0 0 0 673 1147.7z"/></g></mask><linearGradient id="bC" gradientUnits="userSpaceOnUse" x1="83.5" y1="930.1" x2="119.3" y2="1355.2" gradientTransform="matrix(-1 0 0 1 780.5 -243.3)"><stop offset="0" stop-color="#fff"/><stop offset="1"/></linearGradient><path clip-path="url(#bv)" mask="url(#bB)" fill="url(#bC)" d="M673 1147.7c172 0 328.7-65.8 446.3-173.5-137.7 121.1-283 9.2-446.3-111-163.5 120.3-308.9 232.3-446.8 110.6A658.7 658.7 0 0 0 673 1147.7z"/><linearGradient id="bD" gradientUnits="userSpaceOnUse" x1="83.5" y1="930.1" x2="119.3" y2="1355.2" gradientTransform="matrix(-1 0 0 1 780.5 -243.3)"><stop offset="0" stop-color="#5fa400"/><stop offset="1" stop-color="#e7ff00"/></linearGradient><path fill="url(#bD)" d="M673 1147.7c172 0 328.7-65.8 446.3-173.5-137.7 121.1-283 9.2-446.3-111-163.5 120.3-308.9 232.3-446.8 110.6A658.7 658.7 0 0 0 673 1147.7z"/><defs><use id="bE" xlink:href="#b"/></defs><defs/><clipPath id="bF"><use xlink:href="#bE" overflow="visible"/></clipPath><clipPath id="bI" clip-path="url(#bF)"><use xlink:href="#bG" overflow="visible"/></clipPath><defs><filter id="bH" filterUnits="userSpaceOnUse" x="493.8" y="731.9" width="793" height="415.7"><feColorMatrix values="1 0 0 0 0 0 1 0 0 0 0 0 1 0 0 0 0 0 1 0"/></filter></defs><mask maskUnits="userSpaceOnUse" x="493.8" y="731.9" width="793" height="415.7" id="bO"><g filter="url(#bH)"><defs><use id="bJ" xlink:href="#b"/></defs><defs/><clipPath id="bK" clip-path="url(#bI)"><use xlink:href="#bJ" overflow="visible"/></clipPath><clipPath id="bM" clip-path="url(#bK)"><use xlink:href="#bL" overflow="visible"/></clipPath><linearGradient id="bN" gradientUnits="userSpaceOnUse" x1="-155.5" y1="779.3" x2="-73.3" y2="1484" gradientTransform="matrix(-1 0 0 1 780.5 -243.3)"><stop offset="0" stop-color="#fff"/><stop offset="1"/></linearGradient><path clip-path="url(#bM)" fill="url(#bN)" d="M493.8 1123a661.2 661.2 0 0 0 793-390.2c-258.1-23.1-481.1 461.1-793 390.2z"/></g></mask><linearGradient id="bP" gradientUnits="userSpaceOnUse" x1="-155.5" y1="779.3" x2="-73.3" y2="1484" gradientTransform="matrix(-1 0 0 1 780.5 -243.3)"><stop offset="0" stop-color="#fff"/><stop offset="1"/></linearGradient><path clip-path="url(#bI)" mask="url(#bO)" fill="url(#bP)" d="M493.8 1123a661.2 661.2 0 0 0 793-390.2c-258.1-23.1-481.1 461.1-793 390.2z"/><linearGradient id="bQ" gradientUnits="userSpaceOnUse" x1="-155.5" y1="779.3" x2="-73.3" y2="1484" gradientTransform="matrix(-1 0 0 1 780.5 -243.3)"><stop offset="0" stop-color="#e7ff00"/><stop offset="1" stop-color="#ff0"/></linearGradient><path fill="url(#bQ)" d="M493.8 1123a661.2 661.2 0 0 0 793-390.2c-258.1-23.1-481.1 461.1-793 390.2z"/><defs><use id="bR" xlink:href="#b"/></defs><defs/><clipPath id="bS"><use xlink:href="#bR" overflow="visible"/></clipPath><clipPath id="bV" clip-path="url(#bS)"><use xlink:href="#bT" overflow="visible"/></clipPath><defs><filter id="bU" filterUnits="userSpaceOnUse" x="493.8" y="731.9" width="775.8" height="402.9"><feColorMatrix values="1 0 0 0 0 0 1 0 0 0 0 0 1 0 0 0 0 0 1 0"/></filter></defs><mask maskUnits="userSpaceOnUse" x="493.8" y="731.9" width="775.8" height="402.9" id="cb"><g filter="url(#bU)"><defs><use id="bW" xlink:href="#b"/></defs><defs/><clipPath id="bX" clip-path="url(#bV)"><use xlink:href="#bW" overflow="visible"/></clipPath><clipPath id="bZ" clip-path="url(#bX)"><use xlink:href="#bY" overflow="visible"/></clipPath><linearGradient id="ca" gradientUnits="userSpaceOnUse" x1="-57.4" y1="973.5" x2="-168.1" y2="1471.3" gradientTransform="matrix(-1 0 0 1 780.5 -243.3)"><stop offset="0" stop-color="#fff"/><stop offset="1"/></linearGradient><path clip-path="url(#bZ)" fill="url(#ca)" d="M1269.6 732c-250.8-1-470.8 460.4-775.8 391.1l1.1.3a315.8 315.8 0 0 0 244.2-31.8C933 978 1101.8 732.4 1269.6 732z"/></g></mask><linearGradient id="cc" gradientUnits="userSpaceOnUse" x1="-57.4" y1="973.5" x2="-168.1" y2="1471.3" gradientTransform="matrix(-1 0 0 1 780.5 -243.3)"><stop offset="0" stop-color="#fff"/><stop offset="1"/></linearGradient><path clip-path="url(#bV)" mask="url(#cb)" fill="url(#cc)" d="M1269.6 732c-250.8-1-470.8 460.4-775.8 391.1l1.1.3a315.8 315.8 0 0 0 244.2-31.8C933 978 1101.8 732.4 1269.6 732z"/><linearGradient id="cd" gradientUnits="userSpaceOnUse" x1="-57.4" y1="973.5" x2="-168.1" y2="1471.3" gradientTransform="matrix(-1 0 0 1 780.5 -243.3)"><stop offset="0" stop-color="#e7ff00"/><stop offset="1" stop-color="#ff0"/></linearGradient><path fill="url(#cd)" d="M1269.6 732c-250.8-1-470.8 460.4-775.8 391.1l1.1.3a315.8 315.8 0 0 0 244.2-31.8C933 978 1101.8 732.4 1269.6 732z"/><linearGradient id="ce" gradientUnits="userSpaceOnUse" x1="178.9" y1="600.3" x2="1125.4" y2="600.3" gradientTransform="matrix(1 0 0 -1 0 1190)"><stop offset="0" stop-color="#5fa400"/><stop offset="1" stop-color="#e7ff00"/></linearGradient><path fill="url(#ce)" d="m1058.6 468.3-811-10c-37.1-.5-67.3 17.6-67.4 40.4l-1.4 170.1c-.2 22.8 29.7 41.6 66.8 42.1l640 7.9-75.1-.9 192.1 2.4 54 .7c37.1.5 67.3-17.6 67.5-40.4l1.3-170.1c.2-22.9-29.7-41.7-66.8-42.2z"/><path d="M374.8 563.2c0-5.2.4-7.3.8-15h-13c0 9.1 0 15.6-.7 19.4-.4 1.7-5 2.2-6.3 2.2-4 0-7.8-1.1-9.2-2 1.6-4.5 2.7-16.1 2.7-27.9 0-9.9-.1-14.9-1.5-21 0 0 4.7-2.7 9.2-2.7 5 0 6.6 1.6 6.6 7.9 0 3.5-.1 10.5-.3 14.2h12.7a74 74 0 0 0-1.5-19.8s3.6-2.3 8.5-2.3c6 0 7 3 7 8.8 0 9.7-.9 17.5-.9 28.5 0 4 .5 9 1.5 13.9 0 0-3.5 2.5-9.8 2.5-4-.2-5.8-1.7-5.8-6.7zM415.8 570c-5.1 0-7.8-2.7-8.6-3.6 4.7-10.8 10.6-36.7 15.4-46.8 1.7-3.5 14-3.6 14-3.6 5.3 20.6 11.6 41.8 16.3 50-2.4 2.7-6.8 4-9.9 4-5.5 0-5.7-3.4-8.5-13.7h-10.4c-.8 4.3-1.7 8.1-2.4 10.9-.3 1-1.4 2.8-5.9 2.8zm13.3-40.2c-.9 3.9-2.5 11.4-4 17l4.1-.1 3.9.2-3.7-17h-.3zM498.8 541.5v.3c6.4.9 11.4 4.4 11.4 12.7 0 13.2-11.7 15.3-22.7 15.3-5 0-12.6-.3-17.8-.6 1.7-9.3 1.7-21 1.7-32 0-6.9-.4-13.8-1.2-20.7a373 373 0 0 1 19.6-.6c13.2 0 18.3 5.5 18.3 13.5.1 6-2.8 10.5-9.3 12.1zm-13.9 4.5c0 2-.1 10.2-.6 14.7.9.2 2.7.3 4 .3 4 0 5.9-3 5.9-7.3 0-4.5-1.7-7.9-6-7.9-1-.1-2.1 0-3.3.2zm-.2-21.2c.1 2.7.3 8 .3 13.1h1.3c4.6 0 6.3-3.3 6.3-7.1s-1.9-6.4-5.2-6.4l-2.7.4zM544.5 535c0 3.4-.4 12-1.7 22.4 7.3 0 11.9-1.4 16.5-3.7a18 18 0 0 1 2.7 9.1c0 5.9-3.6 6.7-10.6 6.7-6.7 0-19.6-.3-23.6-1.2a186.2 186.2 0 0 0 .5-49.8s5-2.7 9-2.7c5.6.1 7.2 2.1 7.2 19.2zM586.7 570c-5.1 0-7.8-2.7-8.6-3.6 4.7-10.8 10.6-36.7 15.4-46.8 1.7-3.5 14-3.6 14-3.6 5.3 20.6 11.6 41.8 16.3 50-2.4 2.7-6.8 4-9.9 4-5.5 0-5.7-3.4-8.5-13.7H595c-.8 4.3-1.7 8.1-2.4 10.9-.3 1-1.4 2.8-5.9 2.8zm13.4-40.2c-.9 3.9-2.5 11.4-4 17l4.1-.1 3.9.2-3.7-17h-.3zM683.3 541.3c0 13.9-5.9 28.9-23.4 28.9-13.9 0-21.1-10.1-21.1-24.6 0-13.9 5.8-29.8 23.4-29.8 13.9.1 21.1 11.1 21.1 25.5zm-16.3 2.6c0-10.5-1.8-14.5-2.5-16.3-1.2-.8-2.2-1.3-3.3-1.3-4.9 0-6.2 9.5-6.2 16.8 0 7 1.1 11.8 2.6 15.4 1.1.8 2.2 1.3 3.3 1.3 4.8.1 6.1-8.5 6.1-15.9zM733.4 548.1l.4-.1c-.4-12-1.4-22.9-3.1-29.8 1.9-1 5-2.2 8.3-2.2 6.5 0 6.7 4 6.7 11.7 0 21.5-1.5 34-2.5 36.7-.9 2.6-3.7 5.2-14.2 5.2a285 285 0 0 0-15-31.5l-.4.1a133 133 0 0 1 1.8 20.2c0 9.1-.9 11.4-6.8 11.4-5 0-8.1-2-8.1-2a170.4 170.4 0 0 0 1.2-49.3c3.7-2 8.6-2.7 11.2-2.7 5.4.2 11.1 10.1 20.5 32.3zM780.9 535c0 3.4-.4 12-1.7 22.4 7.3 0 11.9-1.4 16.5-3.7a18 18 0 0 1 2.7 9.1c0 5.9-3.6 6.7-10.6 6.7-6.7 0-19.6-.3-23.6-1.2a186.2 186.2 0 0 0 .5-49.8s5-2.7 9-2.7c5.7.1 7.2 2.1 7.2 19.2zM816.8 518.8s4.7-2.7 9-2.7c5.2 0 6.5 2.7 6.5 8.1 0 9.7-.6 18.4-.6 29.3 0 4 .5 9.7 1.7 13.9 0 0-3.3 2.5-10.1 2.5-3.9 0-5.6-1.8-5.6-6.2 0-6.5.6-16.1.6-25.1 0-11.3-.7-17.4-1.5-19.8zM884.2 548.1l.4-.1c-.4-12-1.4-22.9-3.1-29.8 1.9-1 5-2.2 8.3-2.2 6.5 0 6.7 4 6.7 11.7 0 21.5-1.5 34-2.5 36.7-.9 2.6-3.7 5.2-14.2 5.2a285 285 0 0 0-15-31.5l-.4.1a133 133 0 0 1 1.8 20.2c0 9.1-.9 11.4-6.8 11.4-5 0-8.1-2-8.1-2a170.4 170.4 0 0 0 1.2-49.3c3.7-2 8.6-2.7 11.2-2.7 5.4.2 11.1 10.1 20.5 32.3zM931.5 516.9c3.7 0 12.2-.1 17-.6.8 2.2 1.2 4.3 1.2 5.9 0 3.4-1.4 6.2-8.3 6.2-4 0-7.8-.2-10.6-.5l.2 5.4-.1 3.5c7 0 9-.3 12.2-1.2.9 1.8 1.7 3.6 1.7 5.9 0 3.9-2.1 5.9-7 5.9-3.2 0-3.9 0-6.8-.2l.1 4.6c0 2.2-.1 3.7-.4 6.1 2.4.2 3.8.2 5.9.2 3.1 0 6.9-.5 11.5-2.2 2.1 3.3 2.4 5.9 2.4 7.5 0 6-5 6.3-11.1 6.3-15.2 0-20.6-.4-23.7-.6.7-6.8 1.4-17.2 1.4-27.4 0-11.2-.6-19.2-1-25l15.4.2zM339.7 629.8c7 3 15.5 7.3 15.5 17 0 9.3-7.4 17.2-20.9 17.2-12 0-17.3-4.6-17.3-9.9 0-4 2.2-8.1 8.3-9.6 2.4 6.3 7.3 9.6 10.6 10.6a6.4 6.4 0 0 0 4.5-5.9c0-3.4-4.3-5.5-9.1-7.7-6.8-3.4-14-7.3-14-16.2 0-11.7 10.1-16.1 20.9-16.1 7.1 0 15.5 2.3 15.5 9.7 0 5.2-4.4 7.6-9.2 8.7a11.4 11.4 0 0 0-10.4-9.3c-1.9 1-2.7 3.4-2.7 4.8.1 2.6 2.8 4.4 8.3 6.7zM372.5 628.7c0-3.6 4.1-4.5 8-4.5 2.3 0 4 .2 6 .9l-.6 4.4.2.1c2.9-5.2 7-6.2 9.9-6.2 11.6 0 13.9 11.1 13.9 18.4 0 15.8-7.3 22.3-15.2 22.3-4.2 0-6.8-1.7-8.7-4.1l-.2.1c.5 4.5.9 13.8.9 14.8 0 7-2.2 8-5.6 8-3 0-6.9-.7-10.1-3 1.4-5.5 3-16.8 3-32.8 0-8.7-1.5-13.2-1.5-18.4zm22.7 6c-.6-.3-1.2-.4-1.7-.4-4.5 0-6 9-6 13l.1 3.4c1.3 1.7 3.2 2.3 4.7 2.3s4-1.5 4-10.7c0-3.6-.7-6.2-1.1-7.6zM462.8 659.5a13.4 13.4 0 0 1-9.3 4.2c-2.7 0-4.9-2.1-5-6.6h-.3c-2 4.5-5.8 7-9.6 7-7.2 0-11.7-4.9-11.7-11.6 0-9.2 6.8-11.9 14.5-11.9l5.5.2v-2.2c0-2-.4-5.2-1.9-6.6-3.2 0-7 1.9-8.5 7.5-4.2-.7-8.5-2-8.5-6.8 0-6.6 7.3-9.3 16.9-9.3 14.1 0 15.4 7.7 15.4 13.1 0 4.6-.4 8.6-.4 13.8-.1 3 1.5 7.1 2.9 9.2zm-21.1-4.6c2.5 0 4.5-2.6 4.5-7.7-.8-.2-1.4-.2-1.9-.2-2.6 0-4.7.8-4.7 4.5 0 .8.1 2.3.6 3.2.4.2 1.1.2 1.5.2zM494.5 647a76 76 0 0 0 1.2 15.3s-4.1 1.3-8.3 1.3c-7 0-7.8-2-7.8-5 0-4.3 1.3-7.7 1.3-12.2 0-5.2-1.5-11.6-1.5-17.8 0-3.5 4.7-4.5 8.6-4.5 2.4 0 3.9.4 5.1.9l-.6 4.4.2.1c2.8-4.6 8.1-6.2 11-6.2 10.3 0 11.7 7.3 11.7 12.3 0 5.1-.7 9.2-.7 14.9 0 3 .6 7.3 2.2 10.1 0 0-3.8 3-9.1 3-6.1 0-6.9-2.7-6.9-8 0-7 .4-11.7 1.2-20.2-.5-.3-1.4-.5-2-.5-1.7 0-5.6.9-5.6 12.1zM553 639.2c5.8 2.4 11.3 4.8 11.3 11.6 0 7.5-5.9 13.2-16.5 13.2-4.7 0-14.2-1.5-14.2-8.7 0-4 2.4-7 6.8-8.4 2.4 4.5 5.6 7.8 8.2 8.8 1.4-.3 2.9-1.4 2.9-3.5 0-2-3.1-3.7-6.5-5.2-5-2.3-10.8-4.8-10.8-11.3 0-7.3 5.5-12.4 16-12.4 5.8 0 13.1 1.6 13.1 7.7 0 5.5-6.7 6.7-8.6 6.7-.9-3.7-3.6-6.3-6.5-6.4a3 3 0 0 0-1.5 2.7c.1 2.6 2.7 3.7 6.3 5.2zM597.4 647.7c-.4.2-1 .8-1.4 1.2l.4 7.3c0 5.1-.5 7.5-6 7.5-4.3 0-7.2-1.3-9.1-3 1.4-4 2.1-8.2 2.1-12.9v-12.2c0-9.5-1-20.6-2.6-24.2 1.9-1.3 5.8-2.7 9-2.7 4 0 7 1.4 7 8.1 0 3.6-.3 11.6-1.5 19l.4.1c3.6-7.7 9-12.3 12.8-12.3 3.2 0 6.5 2.7 8.5 7.3a35.7 35.7 0 0 0-12.2 8.7 55 55 0 0 0 13.9 16c-1 3.4-4.5 8.3-9.1 8.3-3.9-.2-9.3-10.2-12.2-16.2zM634.8 628.7c0-3.6 4.1-4.5 8-4.5 2.3 0 4 .2 6 .9l-.6 4.4.2.1c2.9-5.2 7-6.2 9.9-6.2 11.6 0 13.9 11.1 13.9 18.4 0 15.8-7.3 22.3-15.2 22.3-4.2 0-6.8-1.7-8.7-4.1l-.2.1c.5 4.5.9 13.8.9 14.8 0 7-2.2 8-5.6 8-3 0-6.9-.7-10.1-3 1.4-5.5 3-16.8 3-32.8 0-8.7-1.5-13.2-1.5-18.4zm22.7 6c-.6-.3-1.2-.4-1.7-.4-4.5 0-6 9-6 13l.1 3.4c1.3 1.7 3.2 2.3 4.7 2.3s4-1.5 4-10.7c0-3.6-.7-6.2-1.1-7.6zM726.5 642.6c0 9.6-5.1 21.5-18.6 21.5-13.2 0-18.9-9.8-18.9-18.8 0-9.9 5.2-21.8 19.6-21.8 12.7-.1 17.9 10.2 17.9 19.1zm-21.8 10.7a5 5 0 0 0 2.7.8c3.2 0 4.6-5.4 4.6-10.4a18 18 0 0 0-2-9.5 5 5 0 0 0-2.7-.8c-3.2 0-4.6 5.2-4.6 10.2 0 4.5.7 7.5 2 9.7zM762.5 635.4c-1.9.5-3.7 2.6-3.7 13.1 0 3.6.1 10 1.2 13.8 0 0-4 1.3-8.3 1.3-6.5 0-7.8-1.7-7.8-4.8 0-4.8 1.3-8.3 1.3-12.4 0-5.6-1.5-11.4-1.5-17.8 0-3.5 4.5-4.5 8.6-4.5 2.4 0 4.1.4 5.2.9-.2 1.2-.6 3.4-.7 5.1l.3.1c2.2-5.7 6.3-6.9 9.5-6.9 6.6 0 9.1 5.2 9.1 9.9 0 6.6-4.3 9.7-9.8 9.7-.7-3-1.9-6.1-3.4-7.5zM797.6 633.8H792c0-6.4 1.2-9.6 3.7-9.6h2.2l-.3-7.1c0-4.1 14-4.9 14-4.9l-.8 12h8.4c0 4.6-.1 9.7-4.6 9.7h-3.7a135 135 0 0 0-.5 13.2c0 4.7.4 6 .9 6.6 2.2-.2 3.9-2.2 5.3-4 2.9 2.2 3.7 4.7 3.7 6.7 0 6-7.1 7.7-11 7.7-7.6 0-12.5-3.9-12.5-12.3 0-5.9.7-13.1.8-18zM872.8 659.5a13.4 13.4 0 0 1-9.3 4.2c-2.7 0-4.9-2.1-5-6.6h-.3c-2 4.5-5.8 7-9.6 7-7.2 0-11.7-4.9-11.7-11.6 0-9.2 6.8-11.9 14.5-11.9l5.5.2v-2.2c0-2-.4-5.2-1.9-6.6-3.2 0-7 1.9-8.5 7.5-4.2-.7-8.5-2-8.5-6.8 0-6.6 7.3-9.3 16.9-9.3 14.1 0 15.4 7.7 15.4 13.1 0 4.6-.4 8.6-.4 13.8-.1 3 1.6 7.1 2.9 9.2zm-21-4.6c2.5 0 4.5-2.6 4.5-7.7-.8-.2-1.4-.2-1.9-.2-2.6 0-4.7.8-4.7 4.5 0 .8.1 2.3.6 3.2.4.2 1 .2 1.5.2zM891.3 629.9c0-9.4-1.2-14.8-2.6-18.6 0 0 4.1-2.7 8.7-2.7 6.8 0 6.8 3.9 6.8 11.7 0 9.1-.9 18.3-.9 28.3 0 6.3 2.4 11.6 2.4 11.6a16.1 16.1 0 0 1-8.8 3.5c-5.9 0-6.5-2.9-6.5-8.1.1-8.2.9-16.5.9-25.7zM935.7 646.5c.3 4.5 2.5 7.2 5.4 8 2.6-.7 5.7-2 10.1-6.3 0 0 4.1 2.3 4.1 6.6 0 6.6-8.6 9.4-14.3 9.4-12.9 0-18.8-7.9-18.8-19.9 0-7.3 2.4-20.7 18.8-20.7 11.5 0 14.7 6.5 14.7 13.8 0 2-.2 5.8-.8 7.7l-19.2 1.4zm8.1-7.9c0-1.6-.1-4.1-1.2-5.5-.9-.5-1.7-.5-2.3-.5-2.8 0-4.6 2.9-4.8 6.6l8.3-.6zM988.4 647a76 76 0 0 0 1.2 15.3s-4.1 1.3-8.3 1.3c-7 0-7.8-2-7.8-5 0-4.3 1.3-7.7 1.3-12.2 0-5.2-1.5-11.6-1.5-17.8 0-3.5 4.7-4.5 8.6-4.5 2.4 0 3.9.4 5.1.9l-.6 4.4.2.1c2.8-4.6 8.1-6.2 11-6.2 10.3 0 11.7 7.3 11.7 12.3 0 5.1-.7 9.2-.7 14.9 0 3 .6 7.3 2.2 10.1 0 0-3.8 3-9.1 3-6.1 0-6.9-2.7-6.9-8 0-7 .4-11.7 1.2-20.2-.5-.3-1.4-.5-2-.5-1.7 0-5.6.9-5.6 12.1z"/></svg>